<svg id="Слой_1" data-name="Слой 1" xmlns="http://www.w3.org/2000/svg" viewBox="0 0 100 100"><defs><style>.cls-1{fill:#523bff;}.cls-2{fill:#fff;fill-rule:evenodd;}</style></defs><title>icons</title><rect class="cls-1" width="100" height="100" rx="10"/><path class="cls-2" d="M37.36,24.31c-1.14-3-2.41-2.86-3.29-2.87s-2.13,0-3.18,0a5.12,5.12,0,0,0-3.76,1.73A16.83,16.83,0,0,0,21.4,35.5c-.28,7.38,4.84,14.73,5.55,15.75s8.37,15.66,23.4,22.24,19.24,6.57,20.72,6.2c2.57-.64,7-3.14,9-7.14,1.61-3.35,1.49-6.46,1.14-7.1s-1.34-1-2.81-1.86-8.72-4.72-10.08-5.27-2.35-.84-3.4.63-4.07,4.73-5,5.7-1.79,1.06-3.27.25A40.81,40.81,0,0,1,44.84,57a44.84,44.84,0,0,1-8-10.71c-.83-1.53,0-2.32.77-3s1.57-1.69,2.35-2.54a10.54,10.54,0,0,0,1.6-2.45,2.77,2.77,0,0,0,0-2.63C41.22,34.86,38.49,27.36,37.36,24.31Z"/></svg>