<svg id="Слой_1" data-name="Слой 1" xmlns="http://www.w3.org/2000/svg" viewBox="0 0 100 100"><defs><style>.cls-1{fill:#523bff;}.cls-2{fill:#fff;}</style></defs><title>icons</title><rect class="cls-1" width="100" height="100" rx="10"/><path class="cls-2" d="M60.37,60.26C56.07,63.79,51.55,65.5,46.2,64A14.34,14.34,0,1,1,64.32,49.22c.14,1.91-.44,4.06.27,5.68s2.58,3.54,4,3.58,4-1.95,4.16-3.3C74.19,44,70,33.47,58.32,28.75a23,23,0,1,0-9,44.36c4,.13,7.92-.16,11.84.18,1.14.09,2.15,1.68,3.22,2.58-1.09,1-2.16,2.85-3.27,2.87-5.48.12-11.08.36-16.45-.54A28.44,28.44,0,0,1,21.4,47.12a28.75,28.75,0,0,1,57.32,2c0,1.2,0,2.4,0,3.59.23,5-1.5,9-6.29,11S63.83,64.1,60.37,60.26ZM50,41.56a8.6,8.6,0,1,0,8.6,8.68A8.63,8.63,0,0,0,50,41.56Z"/></svg>