<svg id="Слой_1" data-name="Слой 1" xmlns="http://www.w3.org/2000/svg" viewBox="0 0 100 100"><defs><style>.cls-1{fill:#523bff;}.cls-2{fill:#fff;fill-rule:evenodd;}</style></defs><title>icons</title><rect class="cls-1" width="100" height="100" rx="10"/><path id="vk_alt" class="cls-2" d="M52.11,70.05h4.21a3.53,3.53,0,0,0,1.91-.84,3.08,3.08,0,0,0,.58-1.85s-.08-5.64,2.54-6.47,5.89,5.45,9.41,7.86a6.63,6.63,0,0,0,4.67,1.43l9.4-.13s4.91-.31,2.58-4.17c-.19-.32-1.36-2.86-7-8.08-5.89-5.47-5.1-4.59,2-14,4.32-5.76,6-9.28,5.51-10.78s-3.7-1.06-3.7-1.06L73.66,32a2.39,2.39,0,0,0-1.37.24,2.91,2.91,0,0,0-.93,1.13,61.8,61.8,0,0,1-3.91,8.25c-4.71,8-6.59,8.42-7.36,7.92-1.79-1.16-1.34-4.65-1.34-7.13,0-7.75,1.17-11-2.29-11.82a18,18,0,0,0-4.94-.49c-3.77,0-7,0-8.78.9-1.2.59-2.13,1.9-1.56,2a4.69,4.69,0,0,1,3.12,1.57c1.08,1.47,1,4.78,1,4.78s.63,9.13-1.45,10.26c-1.43.78-3.38-.81-7.58-8.07a67.71,67.71,0,0,1-3.78-7.82,3.11,3.11,0,0,0-.87-1.18A4.38,4.38,0,0,0,30,31.85l-10,.07s-1.51,0-2.07.7,0,1.79,0,1.79S25.75,52.82,34.66,62.1c8.17,8.5,17.45,7.95,17.45,7.95Z"/></svg>